<svg width="28" height="28" viewBox="0 0 28 28" fill="none" xmlns="http://www.w3.org/2000/svg">
<path fill-rule="evenodd" clip-rule="evenodd" d="M18.6667 12.6667C18.6667 15.244 16.5773 17.3333 14 17.3333C11.4227 17.3333 9.33333 15.244 9.33333 12.6667C9.33333 10.0893 11.4227 8 14 8C16.5773 8 18.6667 10.0893 18.6667 12.6667ZM10.415 16.7643C8.36964 17.9862 7 20.2221 7 22.7778C7 23.0019 7.01054 23.2236 7.03114 23.4424H20.9689C20.9895 23.2236 21 23.0019 21 22.7778C21 20.2221 19.6304 17.9862 17.585 16.7643C16.6273 17.6029 15.373 18.1111 14 18.1111C12.627 18.1111 11.3727 17.6029 10.415 16.7643Z" fill="black"/>
<path fill-rule="evenodd" clip-rule="evenodd" d="M8 3C5.23858 3 3 5.23858 3 8V20C3 22.7614 5.23858 25 8 25H20C22.7614 25 25 22.7614 25 20V8C25 5.23858 22.7614 3 20 3H8ZM8 5C6.34315 5 5 6.34315 5 8V20C5 21.6569 6.34315 23 8 23H20C21.6569 23 23 21.6569 23 20V8C23 6.34315 21.6569 5 20 5H8Z" fill="black"/>
</svg>
